<svg width="304" height="242" viewBox="0 0 304 242" fill="none" xmlns="http://www.w3.org/2000/svg">
<path fill-rule="evenodd" clip-rule="evenodd" d="M76.4492 -74.9452C92.4577 -74.1256 105.182 -66.0366 117.907 -56.9537C159.638 -27.1262 173.596 19.1529 144.999 64.6301C100.531 135.154 -3.04567 181.311 -83.3618 160.009C-101.149 155.315 -125.23 151.177 -142.881 128.251C-159.3 106.935 -158.615 81.5936 -151.09 58.1327C-143.428 34.0782 -128.651 11.9394 -116.884 -2.29153C-65.4378 -64.381 37.5913 -120.812 130.769 -91.0619C132.684 -90.4887 134.6 -91.4745 135.148 -93.2635C135.695 -95.0526 134.736 -96.971 132.958 -97.5443C37.0434 -128.161 -69.2694 -70.5188 -122.221 -6.6199C-136.861 11.1252 -156.015 40.7471 -161.488 71.3956C-165.182 92.343 -162.583 113.756 -148.354 132.384C-129.609 156.804 -104.022 161.587 -85.1403 166.587C-2.22446 188.588 104.909 141.082 150.745 68.245C181.53 19.3653 166.754 -30.4239 121.875 -62.4843C108.193 -72.3392 94.2362 -80.8557 76.8595 -81.7435C74.9439 -81.8401 73.3025 -80.3955 73.3025 -78.5193C73.1657 -76.6431 74.6705 -75.0419 76.4492 -74.9452Z" fill="white"/>
<path fill-rule="evenodd" clip-rule="evenodd" d="M113.699 -129.328C135.674 -128.201 153.141 -117.086 170.609 -104.605C227.895 -63.6195 247.054 -0.0273132 207.799 62.4629C146.756 159.37 4.57365 222.794 -105.678 193.524C-130.095 187.073 -163.152 181.387 -187.382 149.885C-209.92 120.594 -208.981 85.7725 -198.651 53.5349C-188.133 20.4816 -167.848 -9.93939 -151.695 -29.4941C-81.0737 -114.811 60.3571 -192.353 188.265 -151.474C190.894 -150.686 193.524 -152.04 194.275 -154.499C195.027 -156.957 193.711 -159.593 191.269 -160.381C59.6051 -202.452 -86.3335 -123.245 -159.021 -35.4417C-179.118 -11.0582 -205.412 29.6453 -212.925 71.7594C-217.996 100.543 -214.428 129.967 -194.894 155.563C-169.163 189.12 -134.039 195.692 -108.12 202.562C5.70096 232.794 152.765 167.516 215.686 67.4301C257.946 0.264542 237.662 -68.1508 176.056 -112.205C157.274 -125.747 138.115 -137.449 114.262 -138.669C111.632 -138.802 109.379 -136.817 109.379 -134.239C109.191 -131.661 111.257 -129.46 113.699 -129.328Z" fill="white"/>
<path fill-rule="evenodd" clip-rule="evenodd" d="M148.692 -181.715C176.149 -180.309 197.973 -166.43 219.798 -150.845C291.374 -99.6662 315.312 -20.2592 266.265 57.7717C189.996 178.779 12.3459 257.976 -125.408 221.426C-155.916 213.371 -197.219 206.271 -227.492 166.935C-255.653 130.359 -254.48 86.8783 -241.573 46.6234C-228.431 5.35004 -203.086 -32.6364 -182.904 -57.0542C-94.666 -163.589 82.0444 -260.414 241.858 -209.369C245.144 -208.385 248.43 -210.077 249.368 -213.146C250.307 -216.216 248.663 -219.508 245.612 -220.491C81.1048 -273.025 -101.238 -174.12 -192.057 -64.4809C-217.167 -34.0334 -250.02 16.7927 -259.407 69.3802C-265.743 105.322 -261.285 142.064 -236.879 174.025C-204.729 215.927 -160.844 224.134 -128.459 232.712C13.7544 270.463 197.504 188.951 276.12 63.9743C328.922 -19.8948 303.578 -105.324 226.604 -160.335C203.137 -177.244 179.199 -191.857 149.395 -193.38C146.11 -193.546 143.295 -191.067 143.295 -187.848C143.06 -184.629 145.641 -181.881 148.692 -181.715Z" fill="white"/>
<path fill-rule="evenodd" clip-rule="evenodd" d="M65.9439 -24.4565C75.5005 -23.9671 83.0966 -19.137 90.6929 -13.7134C115.605 4.09729 123.937 31.7316 106.866 58.887C80.3201 100.999 18.4879 128.56 -29.4584 115.84C-40.0768 113.037 -54.4526 110.566 -64.9893 96.8766C-74.7909 84.1481 -74.3825 69.0163 -69.8901 55.0073C-65.316 40.6438 -56.4946 27.4242 -49.4701 18.9266C-18.7583 -18.1483 42.7469 -51.8445 98.3712 -34.0801C99.5147 -33.7379 100.658 -34.3265 100.985 -35.3948C101.312 -36.4631 100.74 -37.6086 99.6777 -37.9509C42.4199 -56.2331 -21.0457 -21.8134 -52.6559 16.3421C-61.3957 26.9381 -72.8303 44.626 -76.0975 62.9269C-78.3029 75.4351 -76.7513 88.2213 -68.2565 99.3441C-57.0663 113.926 -41.792 116.782 -30.5201 119.768C18.9781 132.905 82.9333 104.538 110.296 61.0456C128.674 31.8584 119.853 2.12818 93.0619 -17.0158C84.8939 -22.9004 76.5622 -27.9858 66.1888 -28.5159C65.0453 -28.5736 64.0655 -27.711 64.0655 -26.5907C63.9838 -25.4703 64.8821 -24.5142 65.9439 -24.4565Z" fill="white"/>
</svg>
