<svg width="24" height="24" viewBox="0 0 24 24" fill="none" xmlns="http://www.w3.org/2000/svg">
<g clip-path="url(#clip0_27_76)">
<path d="M12 24C18.6274 24 24 18.6274 24 12C24 5.37258 18.6274 0 12 0C5.37258 0 0 5.37258 0 12C0 18.6274 5.37258 24 12 24Z" fill="#273B7A"/>
<path d="M5.66678 16.4576L13.1537 23.9446C18.8601 23.4002 23.4002 18.8601 23.9446 13.1537L18.4576 7.66673L16.9399 9.54599L13.6558 6.26193L13.039 7.72579L16.2742 10.961L15.2365 12.5267L5.66678 16.4576Z" fill="#121149"/>
<path d="M17.7508 7.33333H13.9848L13.7747 6.493C13.7112 6.23884 13.4828 6.06058 13.2208 6.06058H10.7789C10.517 6.06058 10.2886 6.23884 10.2251 6.493L10.015 7.33333H6.24908C5.7433 7.33333 5.33328 7.74334 5.33328 8.24912V15.7508C5.33328 16.2565 5.7433 16.6666 6.24908 16.6666H17.7508C18.2565 16.6666 18.6665 16.2565 18.6665 15.7508V8.24912C18.6666 7.74339 18.2566 7.33333 17.7508 7.33333Z" fill="#FFC61B"/>
<path d="M17.7508 7.33333H13.9848L13.7747 6.493C13.7112 6.23884 13.4828 6.06058 13.2208 6.06058H12V16.6667H17.7508C18.2565 16.6667 18.6666 16.2566 18.6666 15.7509V8.24922C18.6667 7.74339 18.2566 7.33333 17.7508 7.33333Z" fill="#EAA22F"/>
<path d="M18.6667 10.1616H5.33334V14.1616H18.6667V10.1616Z" fill="#E09112"/>
<path d="M18.6667 10.1616H12V14.1616H18.6667V10.1616Z" fill="#FF5419"/>
<path d="M14 15.495C15.841 15.495 17.3333 14.0026 17.3333 12.1616C17.3333 10.3207 15.841 8.82831 14 8.82831C12.1591 8.82831 10.6667 10.3207 10.6667 12.1616C10.6667 14.0026 12.1591 15.495 14 15.495Z" fill="white"/>
<path d="M14 14.5455C15.3166 14.5455 16.3838 13.4782 16.3838 12.1616C16.3838 10.8451 15.3166 9.7778 14 9.7778C12.6835 9.7778 11.6162 10.8451 11.6162 12.1616C11.6162 13.4782 12.6835 14.5455 14 14.5455Z" fill="#386895"/>
</g>
<defs>
<clipPath id="clip0_27_76">
<rect width="24" height="24" fill="white"/>
</clipPath>
</defs>
</svg>
