<svg width="25" height="24" viewBox="0 0 25 24" fill="none" xmlns="http://www.w3.org/2000/svg">
<path d="M20.5 20.5H4.5C3.4 20.5 2.5 19.6 2.5 18.5V5.5C2.5 4.4 3.4 3.5 4.5 3.5H20.5C21.6 3.5 22.5 4.4 22.5 5.5V18.5C22.5 19.6 21.6 20.5 20.5 20.5Z" fill="#F57C00"/>
<path d="M16.5 8C16.5 8.39782 16.658 8.77936 16.9393 9.06066C17.2206 9.34196 17.6022 9.5 18 9.5C18.3978 9.5 18.7794 9.34196 19.0607 9.06066C19.342 8.77936 19.5 8.39782 19.5 8C19.5 7.60218 19.342 7.22064 19.0607 6.93934C18.7794 6.65803 18.3978 6.5 18 6.5C17.6022 6.5 17.2206 6.65803 16.9393 6.93934C16.658 7.22064 16.5 7.60218 16.5 8Z" fill="#FFF9C4"/>
<path d="M10.5 8L5 16H16L10.5 8Z" fill="#942A09"/>
<path d="M16 11L12 16H20L16 11Z" fill="#BF360C"/>
</svg>
