<svg width="24" height="24" viewBox="0 0 24 24" fill="none" xmlns="http://www.w3.org/2000/svg">
<path opacity="0.1" d="M12 3C19.4115 3 21 4.5885 21 12C21 19.4115 19.4115 21 12 21C4.5885 21 3 19.4115 3 12C3 4.5885 4.5885 3 12 3Z" fill="#323232"/>
<path d="M12 3C19.4115 3 21 4.5885 21 12C21 19.4115 19.4115 21 12 21C4.5885 21 3 19.4115 3 12C3 4.5885 4.5885 3 12 3Z" fill="#FFCA21" stroke="#FFCA21" stroke-width="2"/>
<path d="M12 8V16" stroke="white" stroke-width="2" stroke-linecap="round" stroke-linejoin="round"/>
<path d="M15 11L12.087 8.08705C12.039 8.03898 11.961 8.03898 11.913 8.08705L9 11" stroke="white" stroke-width="2" stroke-linecap="round" stroke-linejoin="round"/>
</svg>
